<?xml version="1.0" standalone="no"?>
<!DOCTYPE svg PUBLIC "-//W3C//DTD SVG 20010904//EN"
 "http://www.w3.org/TR/2001/REC-SVG-20010904/DTD/svg10.dtd">
<svg version="1.0" xmlns="http://www.w3.org/2000/svg"
 width="300.000000pt" height="300.000000pt" viewBox="0 0 300.000000 300.000000"
 preserveAspectRatio="xMidYMid meet">
<metadata>
Created by potrace 1.11, written by Peter Selinger 2001-2013
</metadata>
<g transform="translate(0.000000,300.000000) scale(0.100000,-0.100000)"
fill="#000000" stroke="none">
<path d="M271 2953 c-6 -10 -11 -13 -11 -6 0 7 -9 9 -22 5 -30 -7 -98 -52 -98
-64 0 -5 -4 -6 -10 -3 -6 3 -10 -2 -10 -11 0 -10 -3 -15 -6 -11 -13 12 -89
-123 -97 -170 -1 -10 -6 -23 -9 -29 -8 -12 -4 -2305 4 -2344 15 -74 77 -171
145 -227 l46 -38 1289 0 1289 -1 40 24 c21 13 39 28 39 33 0 6 5 7 10 4 6 -3
10 -2 10 2 0 5 10 19 23 33 28 32 71 110 63 117 -3 3 1 12 9 19 8 8 12 25 9
40 -3 15 -1 23 5 20 10 -6 9 2294 -1 2340 -7 36 -56 127 -88 167 -18 20 -52
51 -76 68 l-44 30 -1250 0 c-766 0 -1248 4 -1245 10 4 5 4 9 1 9 -3 0 -10 -8
-15 -17z"/>
</g>
</svg>
